<?xml version="1.0" encoding="utf-8"?>
<svg version="1.1" xmlns="http://www.w3.org/2000/svg" xmlns:xlink="http://www.w3.org/1999/xlink" x="0px" y="0px" viewBox="0 0 1000 1000" enable-background="new 0 0 1000 1000" xml:space="preserve">
  <style>
    path {
      color: rebeccapurple;
    }
  </style>
    <path d="M113.1,287.7c37.7,57,70.8,124.8,76,136.4c1.5,3.4,3.9,11.3,6.5,21c18.4-26,40.8-47.4,67.6-63.2c38.2-22.5,82.2-31.7,129.7-29.5c-11.5-18.2-21.9-36.9-26.9-51.5c-12.9-37.4-59.5-191.8-86.8-257.7C251.9-22.7,148,24.2,87.6,58.5C27.2,92.8,23.8,135.2,30,146.8C36.1,158.5,75.4,230.7,113.1,287.7z"/>
    <path d="M344.7,500.1c80.3-33.1,97.5,7.1,97.5,7.1c25.5-23.6,7.7-51.5,7.7-51.5s6.4-12-4-24.2c-6.4-7.5-26.9-34.6-44.8-63.2c-47.5-2.2-91.4,7-129.7,29.5c-26.8,15.8-49.2,37.2-67.6,63.2c6.5,24,14.9,59.1,17.1,65.2c3.1,8.6,11,20.2,18.4,21.8c7.4,1.5,11.6,8.6,11.6,8.6c9.5,19.3,39.2,20.5,39.2,20.5S264.4,533.2,344.7,500.1z"/>
    <path d="M944,670.4c-24.6-19.2-57.5-28.5-83.8-45.5c-67.9-44,20-84.6,49.1-110.8c49.4-44.5,62.4-95.9,41.9-158.2c-6.4-19.5-20.3-40.1-13.9-20.6c35,106.6-76.2,157.5-132.6,217.1c-20.8,21.9-17.9,45.7,3.7,67.6c41.8,42.4,167.5,78.1,89.6,144c-54.6,46.2-139.4,50.3-199.9,89.3c-8.2,5.3-9.1,19.4-0.9,25.2c59.5,41.6,141.8,31.6,200.3,69.3c-101,30.4-207,10.6-310.9,1.1c0.4-2.9,0-5.4,0-5.4c-13.2-80.9-14.5-98.5-8.4-139c6.1-40.5,0-44.2,0-44.2c-62.5-85.8-138.5-248-138.5-248c-10.1-16.9-50.3-24-99.9-1.8c-51.5,23-47.8,54.6-47.8,54.6l87.4,257.6c3.1,8.3,17.2,12.3,17.2,12.3c81.9,23.6,148.6,106.3,157.5,119.2c8.9,12.9,15.3,8,15.3,8l-95.5-213.8c-7.3-1.7-14.7-8-19.1-17.4c-6.3-13.6-3.8-28.2,5.6-32.6s22.2,3.1,28.6,16.7c4.8,10.3,4.5,21,0.1,27.6l91,205.7c-0.7-0.1-1.3-0.1-2-0.2c-20.3-1.8,1,24.2,58.1,31.3c127.2,16,176.9,15,299.5-11c12.6-2.7,12.8-18.7,4.5-27.1c-54.3-55.4-133.8-43.6-198.8-73.8C824.1,832.6,1051.2,754.2,944,670.4z"/>
</svg>
